<?xml version="1.0" standalone="no"?>
<!DOCTYPE svg PUBLIC "-//W3C//DTD SVG 20010904//EN"
 "http://www.w3.org/TR/2001/REC-SVG-20010904/DTD/svg10.dtd">
<svg version="1.0" xmlns="http://www.w3.org/2000/svg"
 width="2560.000000pt" height="2560.000000pt" viewBox="0 0 2560.000000 2560.000000"
 preserveAspectRatio="xMidYMid meet">
<metadata>
Created by potrace 1.14, written by Peter Selinger 2001-2017
</metadata>
<g transform="translate(0.000000,2560.000000) scale(0.100000,-0.100000)"
fill="#000000" stroke="none">
<path d="M12799 19706 c-4 -4 -53 -16 -110 -26 -57 -10 -123 -25 -145 -34
-294 -104 -547 -364 -645 -662 -13 -38 -24 -72 -25 -76 -1 -5 -2 -9 -4 -10 -2
-4 -9 -46 -13 -83 -2 -17 -5 -35 -8 -40 -7 -13 -4 -181 4 -225 4 -19 9 -57 12
-85 9 -80 17 -115 26 -121 5 -3 7 -9 4 -14 -6 -10 35 -112 50 -122 5 -4 7 -8
2 -8 -27 0 106 -193 198 -286 172 -175 384 -281 640 -320 92 -14 232 -5 340
22 212 53 394 153 529 288 69 69 78 80 122 142 49 69 126 228 138 285 3 13 12
49 20 79 8 30 17 77 20 103 3 27 8 53 11 58 4 5 1 9 -6 9 -7 0 -8 4 -2 13 5 6
8 23 7 37 -1 14 -4 57 -7 95 -11 165 -95 387 -207 549 -63 91 -195 220 -276
269 -114 69 -233 118 -350 142 -82 18 -314 32 -325 21z"/>
<path d="M11033 17659 c-81 -20 -167 -57 -203 -87 -14 -12 -42 -36 -64 -54
-71 -59 -153 -191 -170 -273 -4 -16 -9 -41 -12 -55 -12 -51 -10 -167 4 -230
38 -174 162 -331 323 -408 110 -53 176 -69 274 -67 83 2 117 10 219 52 125 50
240 152 294 260 45 89 66 174 66 267 -1 121 -7 159 -38 236 -108 266 -419 427
-693 359z"/>
<path d="M14625 17663 c-27 -7 -61 -15 -75 -17 -14 -2 -26 -5 -27 -6 -2 -2 -6
-3 -10 -5 -37 -10 -143 -74 -181 -109 -57 -52 -179 -236 -156 -236 3 0 -1 -10
-9 -23 -26 -41 -39 -188 -24 -285 31 -203 190 -383 413 -468 153 -58 358 -26
518 80 80 53 193 186 197 233 1 5 7 19 14 33 24 44 41 123 41 188 -1 35 3 62
9 62 7 0 6 3 0 8 -6 4 -10 26 -10 49 0 24 -3 43 -7 43 -5 0 -8 11 -8 25 0 14
-5 25 -11 25 -5 0 -7 5 -4 10 3 6 3 16 -2 23 -4 6 -8 14 -8 17 0 3 -14 30 -32
61 -34 60 -95 128 -158 176 -131 99 -337 150 -470 116z"/>
<path d="M12958 17295 c-2 -2 -57 -15 -122 -29 -100 -21 -237 -72 -256 -96 -3
-3 -27 -22 -55 -42 -46 -34 -135 -121 -135 -133 0 -3 -8 -14 -17 -24 -32 -35
-38 -45 -75 -121 -36 -73 -47 -98 -55 -130 -2 -8 -5 -22 -8 -30 -2 -8 -4 -15
-5 -15 -4 0 -11 -44 -15 -85 -2 -25 -4 -47 -5 -50 -7 -16 -3 -76 5 -82 6 -5 5
-8 -3 -8 -7 0 -11 -4 -8 -9 3 -5 8 -30 10 -57 15 -152 94 -316 212 -440 165
-172 381 -272 589 -271 210 0 479 115 599 255 6 7 23 26 39 42 15 15 27 31 27
35 0 3 11 21 24 38 30 40 73 130 87 182 6 22 10 40 8 40 -1 0 3 9 9 21 15 29
25 124 23 219 -2 73 -7 130 -11 130 -1 0 -3 9 -5 20 -8 48 -17 82 -31 115 -23
53 -58 124 -64 130 -3 3 -18 25 -34 49 -90 140 -292 273 -484 321 -70 17 -235
34 -244 25z"/>
<path d="M10650 16218 c-96 -20 -247 -63 -290 -82 -25 -11 -47 -20 -50 -21
-11 -1 -136 -68 -151 -81 -8 -8 -19 -14 -23 -14 -4 0 -12 -4 -19 -10 -7 -5
-41 -33 -77 -61 -36 -29 -90 -77 -120 -108 -57 -57 -180 -212 -180 -227 0 -4
-6 -15 -14 -23 -7 -9 -28 -45 -46 -81 -18 -36 -39 -77 -46 -92 -8 -15 -14 -29
-14 -30 1 -2 -4 -16 -10 -33 -17 -44 -57 -225 -66 -297 -12 -106 -5 -341 12
-369 2 -3 6 -21 9 -40 11 -62 83 -265 120 -340 33 -65 100 -175 115 -189 3 -3
17 -21 31 -40 167 -223 525 -428 829 -474 19 -3 46 -8 60 -11 33 -7 255 -6
300 1 295 47 568 182 765 379 50 49 100 101 110 115 56 72 75 100 68 100 -4 0
-3 4 3 8 13 8 105 172 97 172 -3 0 -1 6 5 13 20 24 70 187 88 287 2 14 7 38
10 54 5 23 14 142 15 191 2 115 -40 336 -81 430 -5 11 -20 47 -34 80 -105 256
-310 492 -541 623 -120 68 -382 169 -411 158 -6 -2 -15 -2 -18 2 -12 12 -42
14 -221 17 -99 1 -200 -1 -225 -7z"/>
<path d="M14839 16226 c-2 -3 -27 -7 -54 -11 -104 -12 -355 -90 -371 -116 -3
-5 -10 -7 -15 -4 -5 4 -9 2 -9 -3 0 -8 -27 -21 -53 -26 -4 0 -12 -8 -17 -16
-5 -8 -10 -12 -10 -8 0 4 -15 -3 -32 -15 -218 -149 -369 -321 -476 -540 -47
-94 -104 -272 -117 -364 -3 -21 -8 -51 -10 -68 -5 -35 -6 -243 -1 -265 1 -8 6
-37 10 -65 20 -129 72 -290 137 -419 138 -277 365 -483 675 -615 89 -38 223
-77 294 -86 30 -4 58 -9 62 -11 15 -9 283 -4 283 6 0 0 20 3 45 4 144 12 407
115 560 220 25 17 47 33 50 36 3 3 21 17 40 32 85 65 202 194 266 294 51 80
93 161 87 168 -4 3 -1 6 5 6 7 0 12 5 12 11 0 6 6 25 14 42 26 60 36 92 60
197 29 125 37 188 37 295 1 256 -77 504 -235 746 -65 99 -221 270 -276 302
-16 10 -35 23 -42 30 -33 32 -219 133 -300 162 -62 23 -169 55 -198 60 -14 2
-36 7 -50 11 -28 8 -364 17 -371 10z"/>
<path d="M12883 14244 c-18 -9 -33 -19 -33 -23 0 -6 -45 -193 -55 -233 -3 -10
-7 -26 -9 -35 -2 -10 -14 -56 -26 -103 -12 -47 -23 -92 -25 -100 -2 -8 -13
-53 -25 -100 -12 -47 -23 -92 -25 -100 -2 -8 -35 -143 -75 -300 -39 -157 -74
-293 -76 -302 -8 -35 -13 -54 -34 -138 -11 -47 -23 -92 -24 -100 -2 -8 -12
-44 -21 -80 -9 -36 -18 -72 -20 -80 -2 -8 -44 -179 -95 -380 -50 -201 -93
-373 -95 -383 -2 -10 -7 -27 -10 -37 -6 -19 -13 -47 -21 -90 -3 -14 -12 -49
-20 -78 l-15 -54 -81 7 c-45 4 -89 8 -97 10 -9 1 -61 6 -116 10 -55 4 -102 8
-105 10 -3 1 -48 6 -100 10 -52 4 -115 9 -140 11 -25 3 -58 6 -75 7 -16 1 -36
6 -42 10 -8 5 -13 4 -13 -3 0 -6 -5 -8 -11 -5 -6 4 -39 9 -73 10 -66 4 -178
13 -261 21 -218 23 -333 30 -417 25 -35 -1 -78 -41 -78 -71 0 -41 39 -108 71
-122 16 -7 29 -16 29 -19 0 -4 15 -12 33 -20 17 -7 34 -15 37 -18 3 -3 61 -34
130 -68 69 -35 166 -85 215 -111 50 -27 129 -69 178 -95 124 -66 346 -187 477
-260 19 -10 40 -23 45 -27 17 -14 119 -70 155 -87 19 -8 40 -19 46 -24 14 -11
-10 -133 -61 -319 -20 -69 -37 -135 -39 -145 -2 -11 -9 -40 -16 -65 -7 -25
-13 -52 -15 -60 -2 -8 -19 -80 -39 -160 -32 -132 -62 -260 -71 -301 -2 -8 -17
-69 -34 -135 -31 -116 -77 -311 -86 -367 -3 -15 -41 -170 -85 -345 -89 -358
-170 -687 -176 -717 -2 -11 -13 -51 -24 -90 -12 -38 -23 -79 -25 -90 -2 -11
-13 -58 -25 -105 -11 -47 -23 -96 -26 -110 -3 -14 -9 -41 -14 -60 -5 -19 -12
-53 -16 -75 -3 -22 -22 -101 -41 -175 -40 -156 -70 -278 -77 -312 -2 -13 -14
-68 -26 -123 -12 -55 -24 -110 -26 -122 -2 -12 -9 -34 -14 -48 -5 -14 -7 -25
-5 -25 3 0 -1 -17 -9 -37 -8 -21 -26 -83 -41 -138 -15 -55 -30 -107 -33 -115
-3 -8 -7 -26 -9 -40 -2 -13 -8 -29 -13 -35 -5 -6 -12 -31 -15 -56 -5 -40 -3
-50 20 -77 51 -60 278 -184 400 -217 17 -5 32 -9 35 -10 67 -20 153 -41 200
-51 91 -18 120 -23 160 -30 25 -4 55 -7 68 -7 12 -1 22 -4 22 -8 0 -4 7 -6 16
-5 9 1 40 -1 68 -6 28 -4 80 -10 116 -14 36 -3 77 -7 92 -10 34 -5 138 -14
243 -19 44 -3 80 -5 80 -5 0 -6 369 -14 620 -14 291 0 439 5 535 19 59 8 122
14 200 20 165 12 239 21 418 51 81 13 161 26 177 28 17 3 39 7 50 10 165 41
359 108 455 156 134 68 176 131 151 223 -7 23 -14 49 -16 57 -2 8 -4 17 -5 20
-1 3 -2 8 -1 12 0 3 -8 33 -18 65 -26 80 -65 235 -96 378 -15 66 -28 127 -30
135 -2 8 -8 38 -15 65 -6 28 -31 129 -55 225 -24 96 -46 192 -49 212 -10 64
-89 400 -103 438 -3 8 -7 22 -8 30 -1 8 -5 26 -8 40 -48 201 -148 621 -152
640 -2 8 -13 56 -25 105 -12 50 -24 100 -26 113 -2 12 -23 93 -45 180 -44 168
-67 268 -74 317 -2 16 -4 30 -5 30 -2 0 -6 19 -15 64 -3 19 -8 37 -10 41 -2 3
-6 17 -9 31 -7 36 -12 56 -35 149 -12 47 -23 94 -25 106 -4 21 -35 153 -52
219 -1 6 -5 21 -8 35 -3 14 -13 57 -22 95 -9 39 -17 78 -17 88 -1 9 -5 17 -10
17 -4 0 -5 5 -2 10 4 6 1 17 -5 25 -7 8 -10 15 -8 15 6 0 -11 74 -42 180 -12
41 -29 107 -38 147 -19 86 -20 84 97 165 42 28 78 56 79 60 2 4 8 8 13 8 5 0
39 23 74 50 35 28 69 50 74 50 5 0 11 3 13 8 6 13 429 326 535 396 143 93 164
126 128 196 -29 56 -75 64 -215 35 -14 -3 -40 -7 -59 -10 -18 -2 -41 -7 -50
-9 -9 -3 -32 -7 -51 -10 -19 -3 -44 -7 -55 -10 -11 -2 -51 -7 -89 -11 -38 -4
-79 -8 -90 -10 -18 -3 -70 -10 -141 -20 -11 -1 -20 -3 -20 -4 0 -1 -16 -4 -35
-7 -19 -2 -69 -11 -110 -19 -75 -15 -86 -17 -215 -35 -121 -17 -119 -19 -138
85 -2 11 -6 27 -9 35 -11 30 -87 277 -106 345 -70 247 -112 404 -116 430 -2
17 -5 30 -6 30 -1 0 -3 7 -5 15 -5 18 -36 126 -64 225 -28 95 -58 203 -86 305
-55 196 -129 453 -161 560 -47 151 -184 650 -184 667 0 8 -12 25 -26 38 -31
29 -74 32 -121 9z"/>
<path d="M8555 13978 c-172 -28 -311 -70 -435 -132 -72 -36 -169 -94 -180
-106 -3 -4 -26 -21 -51 -38 -55 -37 -202 -180 -244 -237 -17 -22 -32 -42 -36
-45 -13 -12 -69 -99 -69 -108 0 -6 -4 -12 -9 -14 -9 -3 -101 -188 -105 -210
-1 -7 -4 -17 -7 -23 -16 -27 -47 -138 -64 -230 -2 -11 -6 -33 -10 -50 -14 -65
-17 -265 -6 -351 25 -188 108 -428 202 -588 142 -240 337 -416 603 -542 114
-54 287 -112 348 -118 19 -2 41 -7 48 -11 15 -10 350 -16 365 -7 5 3 25 7 44
9 57 5 220 52 324 95 169 69 325 167 439 274 73 69 148 152 148 162 0 6 4 12
8 14 34 13 196 314 218 403 4 17 10 35 14 40 4 6 8 17 8 25 1 8 11 58 22 110
11 52 22 130 24 172 3 43 8 83 12 89 5 8 3 9 -5 4 -10 -6 -11 -3 -2 12 6 11 8
23 5 26 -3 3 -8 35 -10 72 -3 57 -10 109 -28 201 -23 116 -122 344 -211 484
-83 131 -203 260 -329 351 -44 32 -85 63 -91 67 -57 44 -328 158 -422 177
-152 31 -405 42 -518 23z"/>
<path d="M16937 13944 c-1 -1 -31 -5 -67 -8 -100 -9 -276 -49 -294 -67 -6 -5
-16 -9 -23 -9 -19 0 -133 -54 -196 -93 -90 -54 -159 -109 -242 -192 -198 -197
-321 -435 -350 -674 -3 -25 -10 -63 -15 -85 -9 -39 -7 -274 3 -326 26 -138 59
-234 127 -371 118 -238 275 -407 495 -531 98 -56 283 -131 350 -143 11 -2 47
-9 79 -15 86 -17 209 -20 306 -9 127 15 246 38 287 56 20 8 45 17 56 18 27 6
97 38 97 45 0 4 6 7 13 7 13 0 165 89 185 110 7 7 17 13 21 13 17 0 210 199
260 267 29 40 51 74 49 77 -2 2 4 12 13 22 22 26 81 144 71 144 -4 0 -2 4 4 8
15 10 62 158 78 247 23 127 24 339 1 455 -35 182 -81 308 -163 445 -67 113
-193 259 -289 336 -43 34 -142 99 -152 99 -6 0 -11 4 -11 8 0 5 -24 19 -52 31
-29 12 -61 27 -72 32 -62 34 -255 84 -362 95 -76 7 -203 12 -207 8z"/>
<path d="M11235 13275 c-22 -7 -71 -20 -110 -29 -38 -10 -72 -21 -75 -25 -3
-3 -27 -18 -54 -31 -62 -31 -193 -158 -239 -231 -37 -58 -84 -166 -92 -209 -3
-14 -8 -45 -13 -70 -10 -59 -7 -185 7 -252 51 -244 254 -459 506 -537 203 -63
407 -31 595 94 74 50 139 111 181 171 44 65 89 150 82 158 -3 3 0 6 7 6 7 0
11 3 7 6 -3 3 -2 17 3 30 34 87 43 223 25 343 -7 45 -46 162 -68 203 -89 164
-235 281 -435 347 -110 36 -255 47 -327 26z"/>
<path d="M14555 13144 c-85 -30 -146 -59 -172 -82 -72 -62 -92 -82 -120 -119
-39 -48 -91 -145 -97 -179 -3 -13 -7 -28 -11 -33 -17 -29 -24 -169 -12 -253 9
-60 56 -187 77 -208 3 -3 24 -30 47 -60 43 -56 61 -75 123 -121 97 -73 223
-112 355 -110 110 2 228 44 339 120 51 35 156 148 156 168 0 7 4 13 9 13 9 0
35 58 56 128 7 23 11 42 8 42 -3 0 -1 6 4 13 11 14 10 126 -1 202 -24 154 -80
262 -184 355 -105 93 -230 137 -412 145 -82 3 -105 1 -165 -21z"/>
<path d="M15895 11264 c-111 -17 -346 -93 -390 -125 -5 -4 -32 -19 -60 -34
-74 -41 -178 -118 -252 -188 -59 -56 -162 -175 -188 -218 -75 -124 -97 -164
-123 -221 -17 -37 -28 -69 -24 -72 3 -3 -1 -6 -8 -6 -7 0 -11 -2 -8 -5 3 -3
-5 -40 -18 -82 -13 -41 -23 -78 -22 -82 0 -3 -1 -9 -2 -13 -21 -65 -33 -287
-19 -362 4 -23 10 -68 13 -101 10 -86 16 -124 31 -177 7 -25 11 -49 8 -52 -4
-3 0 -6 7 -6 7 0 10 -3 7 -7 -4 -3 -2 -12 4 -20 6 -7 8 -13 4 -13 -4 0 0 -11
9 -25 9 -14 14 -25 11 -25 -13 0 122 -239 170 -300 56 -71 226 -226 304 -279
134 -89 330 -179 452 -207 213 -49 397 -50 580 -4 183 47 365 127 508 222 97
65 253 221 318 318 53 80 147 250 138 250 -3 0 1 12 9 28 12 24 49 146 62 205
12 54 21 117 16 117 -2 0 0 6 5 13 10 13 10 244 0 312 -35 233 -133 468 -273
654 -53 71 -158 179 -224 232 -140 110 -365 222 -514 254 -66 14 -83 17 -106
21 -61 12 -350 10 -425 -2z"/>
<path d="M9848 11015 c-2 -3 -33 -9 -69 -14 -112 -17 -164 -33 -291 -87 -68
-29 -206 -110 -262 -154 -43 -33 -204 -197 -226 -230 -13 -19 -27 -37 -30 -40
-20 -17 -147 -252 -152 -280 -1 -7 -4 -18 -24 -80 -10 -30 -19 -59 -20 -65
-11 -64 -32 -208 -33 -235 -5 -96 -5 -160 -1 -160 3 0 6 -21 8 -48 2 -43 8
-87 12 -87 1 0 3 -13 5 -30 8 -61 58 -210 97 -290 86 -172 270 -384 428 -492
161 -109 372 -194 545 -219 63 -9 287 -13 300 -5 5 3 26 6 45 8 61 5 191 43
300 87 179 74 299 153 426 280 82 83 194 230 194 255 0 5 3 11 8 13 9 4 64
124 87 188 38 108 64 239 70 350 2 30 4 57 5 60 2 3 2 7 2 10 -11 200 -33 308
-95 465 -94 240 -250 442 -448 580 -93 66 -200 121 -299 154 -36 12 -74 26
-85 31 -19 9 -34 12 -155 30 -57 8 -334 12 -342 5z"/>
</g>
</svg>
